<?xml version="1.0" standalone="no"?>
<!DOCTYPE svg PUBLIC "-//W3C//DTD SVG 20010904//EN"
 "http://www.w3.org/TR/2001/REC-SVG-20010904/DTD/svg10.dtd">
<svg version="1.0" xmlns="http://www.w3.org/2000/svg"
 width="2560.000000pt" height="1440.000000pt" viewBox="0 0 2560.000000 1440.000000"
 preserveAspectRatio="xMidYMid meet">
<metadata>
Created by potrace 1.15, written by Peter Selinger 2001-2017
</metadata>
<g transform="translate(0.000000,1440.000000) scale(0.100000,-0.100000)"
fill="#000000" stroke="none">
<path d="M10050 13271 c-95 -29 -173 -113 -215 -230 -8 -24 -62 -278 -119
-565 -57 -287 -114 -548 -126 -580 -31 -81 -98 -148 -143 -144 -24 2 -35 10
-46 32 -12 26 -7 63 59 400 150 765 168 861 167 863 -5 4 -154 -50 -163 -60
-6 -7 -17 -41 -23 -77 -7 -36 -54 -279 -106 -541 -94 -477 -125 -594 -178
-676 -68 -106 -137 -90 -137 33 0 24 45 271 100 548 55 276 100 510 100 518 0
9 -29 41 -65 73 l-65 57 -78 -79 c-42 -43 -159 -140 -258 -215 -188 -143 -296
-246 -329 -313 -24 -50 -31 -160 -15 -212 25 -76 96 -144 169 -162 95 -24 87
-27 100 36 15 77 15 80 -18 86 -67 14 -121 97 -105 164 21 88 86 158 283 308
75 57 151 116 169 130 l33 27 -5 -23 c-6 -26 -83 -419 -141 -718 -19 -101 -35
-211 -35 -245 0 -152 118 -239 238 -177 46 24 111 92 146 152 l26 46 35 -33
c40 -38 84 -49 155 -41 124 15 244 129 305 290 13 35 60 255 105 488 103 540
106 554 137 617 26 55 70 92 108 92 11 0 35 -9 53 -20 18 -11 34 -20 36 -20 2
0 23 23 46 50 49 59 46 69 -35 106 -51 24 -116 30 -165 15z"/>
<path d="M12926 13235 c-41 -16 -92 -51 -127 -88 -41 -44 -35 -28 -304 -767
-205 -561 -224 -619 -225 -668 0 -90 55 -150 157 -173 125 -28 176 26 243 259
l21 72 322 0 323 0 27 -96 c33 -116 50 -153 88 -194 51 -53 100 -62 180 -32
96 36 136 96 124 186 -4 28 -43 148 -87 266 -44 118 -88 240 -98 270 -10 30
-48 136 -84 235 -37 99 -99 268 -139 375 -90 246 -118 290 -219 341 -54 28
-149 34 -202 14z m144 -547 c28 -90 74 -232 101 -317 27 -84 49 -155 49 -157
0 -2 -93 -4 -206 -4 -191 0 -205 1 -200 18 34 106 123 385 155 490 23 72 43
132 45 132 2 0 27 -73 56 -162z"/>
<path d="M11075 13216 c-5 -3 -26 -7 -46 -10 -20 -4 -54 -22 -78 -42 -80 -69
-76 -31 -79 -742 -2 -412 1 -653 8 -690 12 -69 49 -118 111 -150 44 -23 46
-23 394 -20 l350 3 66 28 c127 54 231 162 281 292 19 50 23 79 23 175 0 106
-2 119 -29 173 -38 78 -114 152 -198 192 -37 18 -77 35 -89 38 -20 5 -17 10
33 51 108 87 144 176 136 327 -4 66 -11 96 -32 137 -54 106 -137 175 -259 215
-54 17 -94 20 -322 23 -143 2 -264 2 -270 0z m462 -354 c55 -29 77 -70 71
-134 -5 -52 -27 -89 -72 -122 -24 -18 -45 -21 -157 -25 l-129 -3 0 157 0 157
123 -4 c100 -4 129 -8 164 -26z m99 -639 c112 -60 111 -260 -1 -317 -35 -18
-62 -21 -212 -24 l-173 -4 0 187 0 187 173 -4 c153 -3 176 -6 213 -25z"/>
<path d="M15630 13211 c-49 -10 -95 -36 -120 -68 -51 -65 -50 -49 -50 -763 l0
-667 23 -44 c13 -24 43 -57 66 -74 l43 -30 345 -3 c335 -3 346 -2 389 18 52
25 94 88 94 140 0 49 -34 111 -77 140 -36 24 -41 25 -272 30 l-236 5 -3 163
-2 162 200 0 c158 0 208 3 238 15 72 31 112 86 112 157 0 54 -27 99 -81 135
l-42 28 -214 3 -213 3 0 160 0 159 220 0 c239 0 268 5 322 57 37 35 52 84 43
141 -9 60 -62 114 -128 131 -50 12 -596 14 -657 2z"/>
<path d="M14097 13200 c-38 -12 -88 -56 -112 -99 -19 -35 -20 -58 -23 -721
l-3 -685 28 -55 c73 -144 249 -147 322 -5 26 49 26 54 31 325 l5 275 30 -42
c17 -22 82 -106 146 -185 175 -217 230 -285 281 -351 61 -76 100 -104 169
-119 65 -13 97 -7 139 28 64 54 88 150 55 215 -14 26 -103 135 -158 192 -12
13 -62 67 -112 122 -49 54 -98 106 -107 114 -29 25 -21 36 35 53 214 67 313
192 331 418 15 192 -94 381 -266 464 -125 60 -169 66 -483 65 -154 0 -292 -4
-308 -9z m579 -338 c86 -44 126 -126 105 -216 -15 -65 -42 -100 -98 -127 -42
-20 -64 -23 -195 -25 l-148 -1 0 199 0 200 148 -4 c126 -3 153 -7 188 -26z"/>
<path d="M10384 12921 c-98 -25 -194 -102 -239 -194 -35 -73 -117 -457 -119
-557 -1 -98 27 -159 93 -202 43 -27 52 -29 126 -26 65 2 91 9 140 33 71 36
171 127 230 210 45 64 135 235 135 258 0 14 -40 37 -65 37 -8 0 -28 -28 -44
-64 -67 -148 -180 -289 -264 -326 -41 -19 -110 -26 -142 -14 -26 10 -45 59
-45 118 0 76 5 84 58 92 116 17 233 105 285 216 60 126 74 297 31 355 -40 53
-115 80 -180 64z m50 -163 c20 -28 21 -105 2 -173 -31 -119 -89 -183 -172
-193 -42 -4 -46 -3 -41 14 3 10 16 69 27 129 28 138 43 177 86 215 41 36 77
39 98 8z"/>
<path d="M10435 11764 c-272 -49 -740 -189 -832 -250 -118 -77 366 15 746 142
168 56 241 89 249 112 5 16 -58 15 -163 -4z"/>
<path d="M15835 11379 c-172 -25 -306 -90 -421 -204 -121 -121 -174 -247 -174
-420 0 -158 43 -266 141 -361 76 -72 172 -117 409 -190 272 -83 336 -119 360
-201 40 -133 -70 -253 -233 -255 -92 -1 -138 9 -287 65 -168 63 -241 69 -308
25 -60 -40 -95 -105 -94 -177 1 -153 134 -255 405 -312 156 -33 387 -31 519 4
202 54 337 157 417 318 51 104 71 194 71 329 0 161 -32 256 -117 351 -94 104
-303 201 -600 279 -137 36 -203 93 -203 175 0 59 57 120 134 145 64 21 205 7
310 -29 50 -17 110 -31 135 -31 86 1 159 53 191 135 17 43 15 137 -4 172 -67
130 -388 220 -651 182z"/>
<path d="M12447 11370 c-87 -22 -167 -82 -214 -161 -44 -73 -581 -1553 -589
-1623 -14 -121 54 -205 192 -236 66 -15 119 -4 160 33 48 42 72 91 114 237
l36 125 377 3 376 2 16 -57 c63 -224 87 -275 158 -327 57 -42 208 -16 275 47
41 38 55 76 53 150 -1 63 -23 127 -272 815 -149 411 -282 770 -295 798 -31 66
-106 141 -171 171 -58 27 -158 37 -216 23z m142 -667 c116 -363 171 -538 171
-545 0 -5 -106 -8 -236 -8 -185 0 -235 3 -232 13 3 6 56 173 118 370 62 196
115 357 116 357 2 0 30 -84 63 -187z"/>
<path d="M8830 11321 c-65 -23 -130 -88 -148 -148 -17 -57 -17 -1578 0 -1635
17 -56 79 -123 136 -145 43 -16 83 -18 427 -18 420 0 436 2 565 63 98 46 211
157 258 253 50 104 65 176 60 303 -3 95 -8 120 -31 170 -59 128 -156 216 -294
268 -35 13 -63 25 -63 28 0 3 13 13 29 23 54 32 138 133 161 194 28 74 37 210
20 284 -31 131 -128 256 -242 311 -117 57 -146 61 -498 65 -301 3 -329 2 -380
-16z m582 -393 c59 -17 108 -65 117 -113 11 -63 -5 -120 -47 -164 -48 -50 -89
-61 -239 -61 l-123 0 0 175 0 175 126 0 c70 0 144 -5 166 -12z m143 -765 c79
-42 105 -88 105 -184 0 -97 -33 -157 -105 -190 -34 -16 -67 -19 -237 -19
l-198 0 0 211 0 211 198 -4 c178 -3 201 -5 237 -25z"/>
<path d="M10537 11324 c-31 -10 -64 -30 -92 -59 -78 -77 -75 -46 -75 -911 0
-674 2 -769 16 -811 24 -71 60 -112 123 -142 l56 -26 363 -3 c395 -3 447 1
506 46 101 76 101 249 -1 316 -60 39 -111 45 -370 46 l-243 0 0 190 0 190 243
0 c242 0 243 0 296 26 74 37 106 87 106 168 0 81 -26 131 -90 171 l-48 30
-254 3 -253 3 2 187 3 187 275 5 c299 5 305 7 362 67 35 37 48 73 48 136 0 89
-58 162 -149 187 -21 6 -187 10 -406 9 -297 0 -379 -3 -418 -15z"/>
<path d="M13767 11326 c-70 -19 -127 -63 -156 -121 l-26 -49 0 -826 c0 -786 1
-827 19 -860 25 -48 55 -79 96 -100 117 -59 244 -18 306 100 17 31 20 68 24
365 l5 330 296 -370 c163 -203 307 -380 320 -392 51 -46 159 -72 227 -53 87
23 146 105 146 205 0 97 3 91 -333 460 l-154 169 79 26 c211 71 310 170 361
362 26 98 23 255 -7 347 -75 231 -272 379 -546 411 -131 15 -597 12 -657 -4z
m643 -407 c93 -42 140 -112 140 -209 0 -97 -40 -158 -130 -199 -40 -18 -66
-21 -217 -21 l-173 0 0 225 0 225 168 0 c146 0 173 -3 212 -21z"/>
<path d="M11678 8856 c-98 -35 -192 -118 -231 -204 -29 -64 -29 -203 0 -283
l21 -55 -70 -55 c-89 -69 -255 -240 -340 -349 -219 -283 -361 -648 -618 -1580
-45 -162 -84 -298 -88 -302 -4 -3 -54 -41 -112 -84 -151 -111 -369 -287 -520
-420 -73 -64 -133 -114 -134 -112 -2 2 -8 41 -15 88 -7 47 -30 195 -51 330
-22 135 -49 317 -60 404 -63 477 -175 954 -276 1174 -71 157 -194 337 -338
496 l-83 91 24 39 c86 135 68 289 -46 405 -84 86 -172 110 -275 75 -50 -17
-137 -90 -177 -148 -13 -20 -28 -36 -33 -36 -4 0 -51 16 -102 35 -130 49 -303
92 -440 110 -134 17 -373 20 -512 4 -271 -29 -553 -135 -787 -294 l-97 -66
-36 39 c-21 22 -52 47 -69 56 -118 60 -283 -2 -357 -134 -28 -50 -31 -63 -31
-146 0 -86 2 -95 42 -175 l42 -84 -71 -118 c-196 -328 -336 -758 -402 -1234
-9 -62 -32 -269 -51 -460 -19 -191 -42 -400 -50 -463 -34 -251 -104 -569 -180
-810 -41 -132 -97 -400 -119 -575 -54 -426 -45 -871 24 -1228 76 -391 228
-735 441 -992 85 -104 153 -166 262 -239 279 -189 569 -279 986 -307 181 -13
448 -4 529 17 124 33 269 141 354 266 21 32 40 58 42 58 2 0 19 -24 38 -53
126 -189 285 -255 550 -229 426 42 819 219 1083 486 236 239 353 500 431 961
23 139 26 188 27 375 0 118 -6 307 -13 420 -12 196 -12 205 6 217 11 7 62 41
114 76 l95 63 -4 -205 c-5 -328 29 -587 110 -835 94 -287 239 -511 446 -689
l91 -79 17 -71 c39 -161 129 -417 190 -542 72 -146 137 -233 198 -269 65 -38
205 -74 328 -85 343 -29 726 70 1025 267 86 57 92 59 117 45 108 -56 360 -128
553 -159 164 -26 419 -23 553 5 268 57 413 154 560 377 138 208 221 384 282
599 18 65 31 89 69 130 170 184 292 493 335 850 14 113 16 187 11 385 -3 135
-9 263 -12 285 l-7 39 29 -19 c127 -84 240 -150 361 -211 132 -66 145 -75 187
-130 44 -60 113 -128 194 -194 43 -34 44 -37 68 -150 13 -63 42 -182 63 -265
22 -82 38 -151 37 -153 -2 -1 -50 13 -107 32 -322 105 -580 37 -699 -185 -61
-114 -94 -373 -71 -559 55 -447 301 -729 736 -846 227 -61 545 -33 1095 97
342 80 397 90 541 96 l136 6 41 -59 c95 -141 178 -207 322 -258 82 -30 91 -31
255 -31 259 0 411 37 734 175 282 120 723 350 911 475 228 151 388 329 502
560 l41 82 66 -4 c58 -4 72 -2 121 24 95 50 158 162 167 298 7 97 -20 166 -88
230 -27 25 -65 53 -84 61 l-35 14 0 199 c0 109 -5 245 -10 302 -32 318 -120
657 -260 999 -136 332 -240 645 -320 960 -50 202 -142 656 -170 845 -29 196
-66 378 -101 498 -91 306 -233 564 -414 751 l-77 78 28 62 c39 85 41 198 4
269 -30 59 -77 102 -145 133 -152 70 -295 44 -410 -72 l-52 -53 -79 25 c-243
75 -479 107 -794 108 -258 1 -354 -9 -542 -55 -193 -47 -349 -113 -505 -214
l-81 -53 -23 24 c-38 40 -117 74 -175 74 -145 0 -290 -123 -330 -280 -25 -101
-4 -192 75 -316 12 -18 10 -29 -16 -85 -85 -180 -141 -351 -183 -556 -38 -190
-57 -394 -70 -773 -17 -484 -34 -681 -67 -769 l-9 -24 -50 44 c-119 106 -715
561 -997 762 l-67 47 7 83 c14 147 8 590 -11 736 -33 271 -98 532 -186 743
l-49 120 54 55 c77 77 116 161 116 245 0 85 -26 141 -97 208 -125 118 -279
131 -393 34 -47 -41 -40 -43 -133 37 -235 203 -557 333 -983 396 -180 26 -520
24 -675 -5 -63 -12 -124 -24 -135 -27 -17 -5 -25 6 -54 70 -70 157 -207 236
-333 191z m-3105 -485 c33 -13 84 -66 107 -112 20 -38 26 -127 12 -177 -7 -21
-10 -19 -86 37 -43 33 -119 83 -168 111 -85 50 -88 53 -72 71 23 25 132 79
160 79 12 0 34 -4 47 -9z m-769 -70 c250 -52 519 -168 696 -301 216 -162 405
-390 528 -635 102 -204 209 -656 277 -1175 15 -107 39 -274 55 -370 166 -999
309 -2410 285 -2800 -12 -196 -58 -446 -112 -609 -36 -110 -114 -269 -173
-355 -69 -100 -217 -242 -332 -317 -145 -95 -325 -177 -481 -218 l-38 -10 41
45 c22 24 54 65 71 92 34 54 79 188 79 235 -1 31 -2 30 -33 -26 -105 -191
-260 -383 -343 -422 -103 -49 -288 -45 -402 8 -103 48 -197 170 -237 310 -16
55 -16 61 4 147 42 175 45 352 11 505 -11 50 8 131 62 260 30 72 39 84 87 116
143 96 300 103 470 22 55 -26 97 -57 164 -122 88 -85 89 -85 67 -41 -38 74
-110 158 -172 200 -149 99 -304 113 -453 41 l-60 -30 50 46 c108 99 246 133
405 99 193 -41 350 -165 477 -376 53 -90 48 -60 -12 65 -49 101 -123 197 -192
250 -34 26 -41 35 -26 35 29 0 123 -34 225 -81 49 -23 92 -39 95 -36 12 13
-85 100 -146 130 -60 29 -74 32 -166 33 -81 0 -116 6 -185 28 -152 50 -307 39
-427 -31 -67 -39 -151 -138 -194 -228 -40 -82 -79 -216 -79 -267 0 -41 -15
-34 -30 15 -78 262 -344 441 -634 424 -107 -6 -180 -30 -269 -91 l-62 -42 -32
37 c-75 83 -237 91 -392 19 -35 -17 -62 -33 -59 -35 3 -3 45 -1 94 5 180 20
347 6 370 -31 3 -5 -22 -39 -55 -74 -78 -84 -98 -121 -29 -54 172 166 342 235
515 209 84 -13 161 -37 219 -69 21 -12 30 -20 20 -16 -132 40 -316 -10 -462
-126 -64 -51 -134 -129 -115 -129 5 0 13 4 16 10 12 19 195 122 272 153 69 27
90 31 183 31 97 1 110 -1 170 -30 90 -43 126 -76 164 -153 102 -202 130 -460
77 -726 -24 -125 -41 -172 -91 -256 -90 -151 -229 -246 -377 -256 -189 -13
-328 81 -437 297 -29 58 -64 134 -77 170 l-24 65 -3 -58 c-6 -116 49 -258 135
-346 29 -30 53 -55 53 -56 0 0 -21 1 -47 3 -393 22 -665 104 -933 283 -107 71
-172 133 -259 247 -302 397 -446 944 -428 1617 11 388 58 700 151 1009 121
398 168 660 231 1290 19 191 42 396 50 455 73 502 222 935 432 1249 210 314
482 542 792 663 227 89 354 109 661 104 179 -3 245 -7 324 -24z m-1604 -228
c14 -9 27 -18 29 -19 2 -2 -37 -47 -88 -100 -50 -52 -109 -117 -130 -144 l-39
-49 -6 31 c-18 91 0 181 47 235 53 61 136 81 187 46z m11713 -109 c771 -86
1253 -469 1457 -1158 38 -130 63 -248 100 -487 17 -107 51 -295 75 -417 25
-123 45 -230 45 -238 0 -8 -20 -45 -44 -82 -32 -48 -43 -76 -42 -98 2 -17 -2
-31 -9 -31 -6 0 -11 8 -11 18 0 10 4 15 8 13 4 -3 8 0 8 5 0 27 -39 -8 -44
-39 -1 -3 -4 -4 -8 -3 -12 4 -58 -69 -51 -80 3 -6 1 -7 -5 -3 -13 8 -112 -82
-115 -104 -4 -27 -17 -39 -34 -33 -13 5 -15 2 -10 -12 6 -14 5 -16 -6 -6 -11
9 -17 8 -26 -2 -6 -8 -7 -17 -3 -21 4 -4 3 -6 -3 -5 -13 4 -55 -23 -55 -34 0
-5 7 -6 16 -3 9 3 12 2 9 -5 -4 -5 -14 -7 -24 -4 -10 3 -32 -6 -52 -21 -18
-14 -64 -43 -101 -65 -37 -21 -73 -45 -80 -52 -13 -14 -21 -17 -39 -17 -5 0
-7 -5 -3 -12 4 -6 3 -8 -3 -5 -6 4 -37 -6 -70 -22 -32 -16 -93 -41 -136 -56
-43 -15 -80 -32 -84 -38 -4 -6 0 -8 11 -4 10 4 15 3 11 -3 -3 -6 -1 -10 6 -10
7 0 10 -3 7 -6 -4 -3 -17 0 -30 7 -12 7 -32 13 -43 14 -11 1 -63 14 -115 30
-125 35 -320 45 -424 21 -90 -21 -186 -73 -263 -141 -41 -37 -64 -51 -69 -44
-4 7 -3 9 4 5 6 -3 14 -1 17 5 5 7 -19 10 -79 7 -47 -2 -86 1 -86 5 0 4 -28 8
-62 7 -96 -1 -125 7 -175 45 -153 116 -361 157 -558 108 -71 -18 -83 -18 -102
-6 -12 8 -27 12 -33 8 -5 -3 -10 -2 -10 3 0 4 -25 16 -56 26 -30 10 -85 31
-122 47 -36 17 -75 28 -87 25 -11 -3 -27 -1 -35 5 -12 8 -10 9 8 4 31 -9 27 2
-8 20 -16 9 -30 12 -30 9 0 -4 -8 0 -17 8 -27 22 -47 33 -39 20 3 -6 1 -14 -5
-18 -7 -4 -9 -3 -5 4 3 6 -6 15 -21 21 -21 8 -22 10 -5 7 12 -2 22 -3 22 -1 0
9 -64 34 -73 28 -5 -3 -7 -1 -4 4 6 10 -16 26 -28 20 -2 -1 -11 7 -20 18 -9
11 -14 13 -10 5 3 -8 -2 -5 -11 8 -9 12 -22 22 -28 23 -6 0 -38 22 -71 48 -53
42 -60 52 -59 82 0 19 6 142 12 274 7 132 17 350 22 485 13 302 23 394 61 585
77 380 217 668 431 890 116 121 236 209 373 275 316 151 672 196 1138 144z
m-5742 -1325 c59 -14 89 -25 89 -34 0 -17 -88 -45 -137 -45 -54 0 -110 36
-126 83 -5 15 0 17 40 17 25 0 85 -9 134 -21z m344 -126 c44 -19 81 -36 83
-37 1 -2 -7 -15 -18 -29 -28 -35 -112 -54 -163 -38 -64 21 -111 102 -92 160
l6 20 52 -20 c29 -11 88 -36 132 -56z m313 -104 c50 -17 92 -34 92 -39 0 -5
-7 -16 -17 -25 -61 -61 -183 -31 -228 56 -32 60 -14 61 153 8z m-586 -183
c141 -30 252 -144 293 -301 8 -33 15 -75 15 -93 l0 -34 -57 7 c-142 17 -248
63 -343 152 -94 86 -201 236 -183 254 9 9 116 26 173 28 19 0 65 -6 102 -13z
m7822 -2003 c62 -187 97 -323 126 -492 32 -180 37 -164 -90 -295 -60 -62 -106
-117 -102 -122 4 -5 3 -6 -2 -2 -4 4 -43 -23 -85 -60 -67 -58 -76 -71 -75 -99
1 -30 -1 -32 -15 -19 -9 8 -19 16 -22 18 -12 5 -49 -34 -42 -45 3 -5 1 -7 -4
-4 -6 4 -22 -2 -34 -14 -13 -11 -17 -17 -9 -13 9 4 12 3 7 -2 -5 -5 -16 -9
-25 -9 -9 0 -17 -5 -17 -12 0 -6 -4 -15 -9 -20 -5 -5 -6 -3 -2 5 4 6 5 12 2
12 -6 0 -126 -75 -143 -90 -7 -6 -13 -9 -13 -6 0 7 -123 -55 -144 -72 -11 -10
-16 -11 -12 -4 6 10 0 10 -22 -2 -17 -9 -38 -16 -47 -16 -8 0 -15 -8 -15 -17
0 -15 -2 -15 -9 -4 -7 11 -13 12 -23 3 -10 -8 -30 -5 -83 14 -378 133 -702 96
-945 -107 l-70 -59 -103 34 c-167 56 -283 57 -403 2 -71 -32 -160 -122 -208
-208 l-38 -68 -66 0 c-37 0 -119 -1 -183 -1 -65 -1 -122 2 -128 5 -6 4 -33 7
-59 5 -26 -1 -54 1 -62 4 -20 6 -198 31 -232 31 -14 1 -24 5 -21 10 3 5 -8 7
-25 4 -17 -2 -33 -1 -34 4 -2 5 -20 10 -41 11 -20 1 -37 6 -37 10 0 4 -6 7
-12 6 -7 -1 -20 0 -28 4 -47 18 -210 68 -213 65 -2 -2 -11 3 -20 11 -9 7 -24
11 -32 7 -9 -3 -14 -2 -11 3 3 5 -16 17 -42 27 -26 11 -51 21 -56 23 -5 2 -6
-3 -2 -10 4 -8 -1 -4 -11 7 -24 28 -61 47 -75 38 -6 -4 -8 -3 -4 4 3 6 3 13
-2 16 -5 3 -7 18 -5 33 3 15 -14 92 -36 170 -48 169 -107 430 -100 438 3 3 25
-2 50 -10 134 -45 360 -57 515 -29 106 20 194 25 194 11 0 -5 9 -7 20 -4 11 3
18 2 15 -3 -7 -12 41 -18 59 -8 12 7 14 5 9 -9 -3 -10 -3 -15 1 -11 4 3 24 0
43 -8 19 -9 38 -13 41 -10 3 3 11 1 18 -5 7 -6 28 -13 46 -15 18 -2 62 -11 97
-19 35 -9 70 -14 77 -11 7 3 16 1 19 -3 10 -17 214 -36 385 -35 159 0 373 23
565 59 36 7 130 24 165 31 14 2 32 7 40 10 8 3 29 7 45 10 74 9 223 49 218 58
-3 5 -1 6 5 2 13 -8 64 3 58 13 -7 10 79 6 179 -8 119 -18 314 -9 420 18 107
28 245 97 326 164 118 98 226 268 264 416 12 48 28 78 61 116 24 29 40 56 36
60 -4 5 -2 5 5 1 14 -8 36 27 25 39 -4 5 -2 5 5 1 7 -4 17 3 24 16 7 13 25 39
41 58 15 19 28 38 28 42 0 12 42 78 50 78 4 0 33 -75 64 -167z m-4776 -1654
c21 -7 35 -22 45 -47 47 -117 -86 -200 -139 -88 -21 42 -13 79 26 117 33 33
28 32 68 18z m2388 -128 c-4 -5 3 -7 13 -4 28 7 53 -36 46 -78 -6 -36 -22 -52
-43 -44 -7 3 -10 0 -7 -5 14 -23 -46 -8 -70 17 -32 36 -32 66 2 98 26 23 71
36 59 16z m-2068 -28 c24 -20 44 -81 22 -68 -10 6 -10 3 -2 -10 13 -25 -3 -59
-35 -74 -33 -15 -37 -14 -72 15 -35 29 -40 67 -16 114 22 43 67 53 103 23z
m2466 -79 c9 -3 13 -10 10 -15 -3 -5 1 -6 8 -4 20 8 50 -50 45 -84 -7 -43 -26
-73 -43 -67 -9 3 -12 1 -9 -4 8 -13 -51 -13 -75 0 -11 6 -27 26 -36 45 -14 30
-14 40 -4 66 15 35 53 64 71 53 8 -4 9 -3 5 4 -8 13 4 15 28 6z m-2582 -166
c22 -6 50 -25 64 -42 13 -17 29 -37 35 -44 18 -21 19 -152 2 -185 -8 -16 -19
-25 -25 -21 -6 4 -8 3 -4 -4 9 -16 -20 -40 -65 -53 -35 -11 -45 -10 -84 9 -56
27 -105 106 -105 169 0 75 43 149 100 172 33 13 36 13 82 -1z m2129 -97 c22
-20 32 -98 12 -94 -7 2 -10 -3 -7 -11 4 -9 -6 -21 -26 -31 -26 -14 -37 -14
-61 -5 -37 16 -51 33 -55 72 -9 79 79 123 137 69z m377 -35 c39 -20 75 -62 67
-77 -5 -7 -4 -10 3 -5 16 10 35 -60 30 -115 -5 -54 -42 -118 -83 -145 -50 -32
-175 -21 -167 15 1 7 -2 10 -8 6 -28 -18 -80 81 -80 152 0 59 48 152 72 137 4
-3 7 0 6 8 -2 7 5 12 14 12 10 -1 16 2 13 6 -13 21 95 25 133 6z"/>
<path d="M7985 7078 c-87 -48 -66 -186 32 -204 80 -15 147 60 124 138 -19 63
-99 97 -156 66z"/>
<path d="M6719 7036 c-87 -50 -80 -188 11 -226 47 -20 110 -7 142 29 50 56 47
131 -7 181 -31 29 -108 37 -146 16z"/>
<path d="M7340 6815 c-399 -68 -475 -292 -122 -361 321 -62 745 77 706 231
-14 57 -118 114 -246 135 -84 13 -245 11 -338 -5z"/>
<path d="M6652 6480 c-117 -92 -173 -231 -151 -372 15 -96 61 -180 146 -267
41 -42 73 -71 70 -66 -2 6 -24 44 -49 85 -91 151 -121 268 -99 383 13 72 59
166 112 230 49 57 38 60 -29 7z"/>
<path d="M7691 5895 c-52 -36 -119 -77 -148 -92 -29 -16 -53 -32 -53 -37 0
-14 113 0 151 19 58 30 100 66 130 113 51 81 43 81 -80 -3z"/>
<path d="M8273 4763 c-204 -418 -372 -794 -395 -885 -28 -110 -22 -283 12
-373 64 -168 217 -323 370 -376 55 -19 86 -23 195 -23 116 0 138 3 210 28 335
116 574 478 664 1006 25 144 38 399 26 515 l-9 80 -8 -65 c-46 -375 -114 -637
-228 -878 -152 -320 -354 -502 -587 -528 -57 -7 -58 -7 -41 12 10 11 24 36 33
57 16 40 20 117 6 117 -16 0 -100 -90 -128 -137 -24 -41 -28 -44 -57 -39 -44
9 -105 40 -149 77 l-38 32 28 31 c37 40 53 77 53 126 0 46 -15 90 -30 90 -11
0 -90 -158 -90 -179 0 -53 -83 100 -100 186 -18 84 -7 201 28 303 16 47 72
204 125 350 106 298 250 730 244 736 -2 2 -62 -116 -134 -263z"/>
<path d="M6450 4870 c0 -3 24 -78 54 -165 30 -88 96 -281 146 -430 182 -537
200 -608 181 -724 -10 -60 -57 -181 -71 -181 -4 0 -16 19 -26 42 -21 47 -89
138 -103 138 -17 0 -22 -57 -10 -106 9 -34 25 -61 55 -91 l43 -42 -46 -41
c-47 -41 -133 -87 -180 -96 -25 -4 -31 1 -62 55 -36 64 -88 131 -100 131 -15
0 -21 -62 -10 -104 6 -22 20 -54 32 -70 l20 -29 -49 8 c-223 33 -477 250 -614
524 -109 216 -175 499 -196 836 -9 144 -17 119 -34 -102 -18 -244 12 -491 86
-704 65 -187 153 -330 279 -455 261 -258 541 -327 803 -198 133 65 253 202
303 346 29 83 32 251 6 348 -41 150 -201 519 -378 870 -102 203 -128 252 -129
240z"/>
<path d="M8108 2682 c-29 -17 -58 -67 -58 -99 0 -30 37 -81 71 -98 68 -36 147
14 156 99 5 43 3 48 -31 81 -43 40 -92 46 -138 17z"/>
<path d="M7125 2601 c-97 -40 -67 -191 38 -191 99 0 134 132 47 183 -30 18
-54 20 -85 8z"/>
<path d="M7858 2454 c-37 -19 -61 -68 -53 -104 4 -16 21 -41 38 -56 25 -21 38
-25 66 -20 42 6 91 55 91 89 0 32 -36 86 -66 97 -33 13 -44 12 -76 -6z"/>
<path d="M8406 2419 c-20 -16 -26 -29 -26 -57 1 -109 144 -123 166 -16 4 24 0
37 -21 62 -32 39 -79 43 -119 11z"/>
<path d="M6791 2374 c-24 -20 -31 -34 -31 -62 0 -86 93 -130 146 -68 34 38 33
95 -2 130 -34 33 -73 34 -113 0z"/>
<path d="M7413 2382 c-12 -9 -27 -31 -33 -49 -15 -42 9 -89 54 -108 33 -14 76
-10 76 7 0 5 4 7 10 3 12 -8 40 47 40 80 0 39 -50 85 -92 85 -18 0 -43 -8 -55
-18z"/>
<path d="M8102 2197 c-158 -60 -195 -259 -67 -365 91 -74 203 -66 285 22 99
104 70 264 -60 331 -42 22 -118 27 -158 12z"/>
<path d="M7082 2153 c-53 -37 -79 -71 -90 -121 -20 -86 22 -174 103 -216 122
-63 275 33 275 173 0 53 -15 89 -53 130 -65 68 -163 82 -235 34z"/>
<path d="M18180 7149 c0 -6 -8 -9 -17 -8 -34 3 -54 -1 -49 -10 4 -5 -3 -7 -14
-4 -15 4 -20 0 -20 -13 0 -12 -3 -15 -8 -7 -5 8 -22 1 -55 -23 -28 -20 -45
-39 -41 -46 4 -6 3 -8 -3 -5 -12 8 -56 -40 -48 -53 3 -5 -3 -15 -13 -22 -22
-15 -35 -39 -59 -104 -22 -61 -26 -285 -5 -292 6 -2 9 -8 6 -13 -3 -6 -1 -23
5 -40 6 -16 16 -42 22 -59 6 -16 16 -27 22 -23 6 3 7 1 3 -5 -10 -16 12 -54
26 -46 7 4 8 3 4 -5 -9 -14 22 -61 83 -123 42 -44 72 -64 55 -36 -4 7 -3 8 5
4 6 -4 9 -12 6 -17 -8 -12 75 -64 145 -91 54 -21 187 -29 250 -16 14 3 31 6
38 7 7 0 10 6 6 13 -5 8 -2 9 10 5 22 -9 64 12 47 23 -9 5 -8 9 4 13 9 4 13 3
10 -3 -3 -6 -2 -10 4 -10 17 0 140 130 160 169 36 69 54 153 54 242 0 48 -4
93 -9 100 -5 8 -7 21 -6 31 2 9 -7 24 -20 33 -13 10 -16 15 -7 12 13 -4 15 -1
12 14 -3 10 -8 17 -12 14 -4 -2 -7 6 -7 18 1 12 -4 21 -11 20 -7 -2 -10 3 -7
11 5 13 -32 92 -58 124 -14 16 -31 16 -25 -1 3 -8 -1 -14 -9 -14 -12 0 -12 3
0 21 13 19 10 24 -32 64 -50 48 -132 107 -132 96 0 -4 -9 1 -19 10 -11 10 -25
15 -32 10 -7 -4 -10 -3 -6 3 8 12 -86 38 -102 29 -5 -4 -12 -2 -15 3 -8 12
-136 12 -136 0z"/>
<path d="M16776 6975 c-47 -13 -70 -31 -60 -46 2 -4 0 -10 -5 -14 -6 -3 -8 3
-6 14 2 14 -1 18 -11 14 -7 -3 -11 -10 -7 -16 3 -6 1 -7 -6 -3 -17 11 -62 -21
-55 -39 4 -8 1 -15 -6 -15 -6 0 -8 5 -5 10 3 6 2 10 -3 10 -18 0 -143 -142
-138 -156 3 -7 2 -13 -2 -13 -19 3 -23 -2 -12 -16 11 -13 10 -14 -3 -9 -11 4
-21 -4 -32 -25 -8 -17 -13 -31 -10 -31 3 0 -1 -10 -10 -23 -8 -12 -16 -32 -18
-42 -2 -11 -9 -40 -16 -64 -7 -24 -10 -52 -8 -62 3 -11 0 -19 -5 -19 -17 0 -3
-156 17 -186 9 -14 14 -28 11 -32 -3 -3 -6 1 -6 8 0 7 -2 11 -5 8 -8 -8 17
-72 34 -86 10 -8 10 -11 2 -6 -8 4 -2 -13 13 -37 14 -24 31 -43 37 -41 6 1 8
-1 5 -6 -16 -26 111 -122 194 -146 59 -18 171 -21 199 -7 26 14 36 2 49 -67 7
-34 22 -84 33 -110 25 -59 34 -46 43 63 9 110 31 196 77 292 88 185 264 312
519 377 49 12 93 25 96 28 3 4 -29 14 -72 24 -75 16 -222 16 -265 -1 -13 -5
-17 4 -22 55 -3 33 -10 67 -16 74 -6 7 -8 15 -5 18 8 8 -17 88 -28 88 -4 0 -8
7 -8 15 0 22 -30 66 -41 59 -5 -3 -6 1 -3 9 7 18 -82 100 -99 91 -6 -4 -9 -4
-5 1 7 8 -44 46 -67 49 -5 1 -17 6 -25 11 -25 15 -190 16 -244 0z"/>
<path d="M17423 6320 c-54 -11 -118 -44 -137 -72 -60 -85 56 -169 233 -169
104 0 179 21 226 62 120 105 -94 224 -322 179z"/>
<path d="M17918 5645 c-36 -39 -94 -86 -127 -105 -34 -19 -78 -45 -99 -58
l-37 -23 65 4 c116 8 216 78 255 179 29 77 14 78 -57 3z"/>
</g>
</svg>
